<svg width="48" height="49" viewBox="0 0 48 49" fill="none" xmlns="http://www.w3.org/2000/svg">
<path d="M30 16.5H30.02M25 42.5H12C10.4087 42.5 8.88258 41.8679 7.75736 40.7426C6.63214 39.6174 6 38.0913 6 36.5V12.5C6 10.9087 6.63214 9.38258 7.75736 8.25736C8.88258 7.13214 10.4087 6.5 12 6.5H36C37.5913 6.5 39.1174 7.13214 40.2426 8.25736C41.3679 9.38258 42 10.9087 42 12.5V25.5" stroke="#808080" stroke-width="4" stroke-linecap="round" stroke-linejoin="round"/>
<path d="M6 32.5L16 22.5C17.856 20.714 20.144 20.714 22 22.5L30 30.5" stroke="#808080" stroke-width="4" stroke-linecap="round" stroke-linejoin="round"/>
<path d="M28 28.5L30 26.5C31.34 25.212 32.9 24.852 34.364 25.42M32 38.5H44M38 32.5V44.5" stroke="#808080" stroke-width="4" stroke-linecap="round" stroke-linejoin="round"/>
</svg>
